<?xml version="1.0" encoding="utf-8"?>
<!-- Generator: Adobe Illustrator 19.1.0, SVG Export Plug-In . SVG Version: 6.00 Build 0)  -->
<svg version="1.1" id="Layer_1" xmlns="http://www.w3.org/2000/svg" xmlns:xlink="http://www.w3.org/1999/xlink" x="0px" y="0px"
	 viewBox="0 0 223.339 143.309" style="enable-background:new 0 0 223.339 143.309;" xml:space="preserve">
<style type="text/css">
	.st0{fill:#010101;fill-opacity:0.2471;}
	.st1{fill:#68553A;}
	.st2{fill:#836948;}
	.st3{fill:#695233;}
	.st4{fill:#5F4B2E;}
	.st5{fill:#604D31;}
	.st6{fill:#625036;}
	.st7{fill:#6F552E;}
	.st8{fill:#5F4E36;}
	.st9{fill:#6F5A3D;}
	.st10{fill:#5C4C33;}
	.st11{fill:#685233;}
	.st12{fill:#5F4A2D;}
	.st13{fill:#5C482D;}
	.st14{fill:#57462D;}
	.st15{fill:#A17F55;}
	.st16{fill:#7E5E34;}
	.st17{fill:#987C57;}
	.st18{fill:#907046;}
	.st19{fill:#795A30;}
	.st20{fill:#8C6D46;}
	.st21{fill:#604A29;}
	.st22{fill:#705631;}
</style>
<g transform="matrix( 1, 0, 0, 1, 0,0) ">
	<g>
		<g id="people_0_Layer22_0_FILL">
			<path class="st0" d="M2.121,128.561c2.026,2.997,3.395,4.884,4.105,5.66c0.455,0.5,0.977,1,1.568,1.5
				c1.237,1.037,2.764,2.069,4.583,3.096c0.345,0.2,0.696,0.391,1.05,0.573c0.582,0.309,1.168,0.6,1.759,0.873
				c1.737,0.818,3.496,1.491,5.278,2.019c0.318,0.1,0.632,0.191,0.941,0.273c2.491,0.673,4.578,0.896,6.26,0.668
				c1.846-0.236,4.642-1.514,8.388-3.833c2.846-1.764,6.238-4.128,10.175-7.092c2.855-2.137,5.833-4.469,8.934-6.997l3.792-3.164
				c4.383-2.01,9.447-3.01,15.194-3.001c1.137,0,2.246,0.041,3.328,0.123c2.609,0.2,5.046,0.627,7.311,1.282l0.314,0.068
				c0.045,0.018,0.095,0.036,0.15,0.055l0.409,0.123c3.473,1.037,7.051,1.932,10.734,2.687c0.9,0.182,1.81,0.359,2.728,0.532
				c4.646,0.837,9.456,1.464,14.43,1.882c3.91,0.318,7.929,0.505,12.057,0.559c0.709,0.009,1.428,0.014,2.155,0.014
				c6.183,0,12.157-0.296,17.922-0.887c2.982-0.318,5.91-0.709,8.784-1.173c6.865-1.128,13.421-2.714,19.667-4.76
				c7.229-2.382,14.035-5.378,20.418-8.988c6.192-3.501,11.384-7.242,15.576-11.225c0.409-0.382,0.805-0.768,1.187-1.159
				c3.273-3.301,5.878-6.76,7.815-10.379c0.691-1.291,1.296-2.6,1.814-3.928c0.609-1.555,1.105-3.141,1.487-4.76
				c0.455-1.982,0.741-4.001,0.859-6.056c0.009-0.245,0.018-0.486,0.027-0.723c0.009-0.145,0.014-0.286,0.014-0.423v-0.082
				c0.009-0.5,0.009-0.996,0-1.487l-5.224-23.323l-1.35,12.561L2.121,128.561z"/>
		</g>
	</g>
</g>
<g transform="matrix( 1, 0, 0, 1, 0,0) ">
	<g>
		<g id="people_0_Layer21_4_FILL">
			<path class="st1" d="M218.831,53.888c-0.002,0.096-0.007,0.191-0.014,0.287c-0.073,1.982-0.3,3.923-0.682,5.824
				c-0.336,1.664-0.796,3.296-1.377,4.896c-0.1,0.282-0.205,0.559-0.314,0.832c-0.518,1.318-1.118,2.619-1.8,3.901
				c0,0.009-0.005,0.018-0.014,0.027v12.384c0.691-1.291,1.296-2.601,1.814-3.928c0.609-1.555,1.105-3.141,1.487-4.76
				c0.455-1.982,0.741-4.001,0.859-6.056c0.009-0.245,0.018-0.487,0.027-0.723c0.009-0.146,0.014-0.286,0.014-0.423v-0.082
				c0.009-0.5,0.009-0.996,0-1.487V53.888 M7.876,120.569c-0.1-0.054-0.195-0.109-0.286-0.164c-1.646-0.946-3.037-1.891-4.174-2.837
				L3.294,129.87c1.237,1.037,2.764,2.069,4.583,3.096c0.346,0.2,0.696,0.391,1.05,0.573c0.582,0.309,1.168,0.6,1.759,0.873
				l-0.095-12.439C9.681,121.546,8.777,121.078,7.876,120.569 M32.931,65.522c-0.355-1.091-0.646-2.191-0.873-3.301
				c-0.009-0.036-0.014-0.073-0.014-0.109c-0.346-1.682-0.559-3.396-0.641-5.142l-0.027,11.661c-0.009,0.2-0.014,0.405-0.014,0.614
				c0,0.064,0,0.127,0,0.191c0.009,3.992,0.696,7.82,2.059,11.484c0.718,1.946,1.628,3.846,2.728,5.701
				c0.336,0.573,0.696,1.146,1.077,1.719c0.364,0.546,0.746,1.091,1.146,1.637l-0.627-14.839
				C35.591,72.055,33.986,68.85,32.931,65.522z"/>
			<path class="st2" d="M218.831,53.888v-0.232c0-0.109,0.005-0.214,0.014-0.314l-97.751,54.856
				c0.718,0.009,1.441,0.014,2.169,0.014c6.128,0,12.061-0.291,17.799-0.873l75.383-42.267l0.314-0.177
				c0.582-1.6,1.041-3.232,1.377-4.896c0.382-1.9,0.609-3.842,0.682-5.824C218.824,54.079,218.829,53.983,218.831,53.888
				 M50.662,107.052l3.792-3.164c4.383-2.009,9.447-3.01,15.194-3.001c1.118,0,2.21,0.041,3.273,0.123l131.562-76.692
				c-1.6-1.4-3.328-2.769-5.183-4.105L16.537,124.21c0.027,0,0.055,0.005,0.082,0.014c2.546,0.718,4.683,0.977,6.41,0.777
				c0.045-0.009,0.091-0.018,0.136-0.027c3.246-0.409,9.434-4.051,18.563-10.925C44.584,111.912,47.561,109.58,50.662,107.052
				 M37.8,34.861c-0.837,1.219-1.591,2.46-2.264,3.723L99.435,2.182c-0.027,0-0.05,0.005-0.068,0.014
				C84.873,4.66,71.793,9.188,60.127,15.78C50.026,21.49,42.583,27.851,37.8,34.861 M172.963,6.929
				c-3.755-1.273-7.638-2.369-11.648-3.287L37.746,75.137c0.018,0.027,0.036,0.055,0.055,0.082c0.582,0.837,1.205,1.659,1.868,2.469
				l2.128,2.428c0.627,0.973,1.059,1.991,1.296,3.055L172.963,6.929 M206.815,80.034v-0.245l-37.521,21.713
				c7.356-2.4,14.275-5.433,20.758-9.097c6.192-3.501,11.384-7.238,15.576-11.211C206.038,80.802,206.433,80.415,206.815,80.034z"/>
			<path class="st3" d="M16.537,124.21c-0.191-0.064-0.382-0.123-0.573-0.177c-1.81-0.536-3.601-1.223-5.374-2.06l0.095,12.439
				c1.737,0.818,3.496,1.491,5.278,2.019c0.318,0.1,0.632,0.191,0.941,0.273L16.537,124.21z"/>
			<path class="st4" d="M3.417,117.568c-0.646-0.527-1.209-1.059-1.691-1.596c-0.964-1.055-1.523-2.019-1.678-2.892
				c-0.009-0.017-0.013-0.035-0.014-0.055l0.041,12.698c0.218,0.8,0.768,1.682,1.65,2.646c0.455,0.5,0.977,1,1.568,1.5
				L3.417,117.568z"/>
			<path class="st5" d="M141.184,119.723l-0.123-12.384c-5.737,0.582-11.67,0.873-17.799,0.873c-0.727,0-1.45-0.005-2.169-0.014
				l0.014,12.398c0.709,0.009,1.428,0.014,2.155,0.014C129.445,120.61,135.419,120.314,141.184,119.723z"/>
			<path class="st6" d="M149.954,106.152l0.014,12.398c6.865-1.127,13.421-2.714,19.667-4.76l-0.341-12.289
				C163.147,103.493,156.701,105.043,149.954,106.152z"/>
			<path class="st7" d="M149.954,106.152c-2.91,0.473-5.874,0.868-8.893,1.187l0.123,12.384c2.982-0.318,5.91-0.709,8.783-1.173
				L149.954,106.152z"/>
			<path class="st8" d="M91.893,117.623l-0.095-12.425c-3.655-0.746-7.201-1.632-10.638-2.66l-0.409-0.123
				c-0.055-0.018-0.105-0.036-0.15-0.055l-0.314-0.068c-2.273-0.664-4.728-1.091-7.365-1.282l0.055,12.398
				c2.61,0.2,5.046,0.627,7.31,1.282l0.314,0.068c0.045,0.018,0.095,0.036,0.15,0.054l0.409,0.123
				C84.632,115.972,88.21,116.868,91.893,117.623z"/>
			<path class="st9" d="M108.941,107.625l0.109,12.411c3.91,0.318,7.929,0.505,12.057,0.559l-0.014-12.398
				C116.938,108.144,112.888,107.953,108.941,107.625z"/>
			<path class="st10" d="M109.051,120.037l-0.109-12.411c-4.946-0.409-9.725-1.037-14.335-1.882l0.014,12.411
				C99.267,118.991,104.077,119.618,109.051,120.037z"/>
			<path class="st11" d="M94.607,105.743c-0.946-0.173-1.882-0.355-2.81-0.546l0.095,12.425c0.9,0.182,1.809,0.359,2.728,0.532
				L94.607,105.743z"/>
			<path class="st12" d="M25.498,114.172c0.009-0.236-0.014-0.459-0.068-0.668c-0.055-0.236-0.141-0.459-0.259-0.668
				c-0.318-0.573-0.868-1.087-1.65-1.541c-1.346-0.791-2.982-1.187-4.91-1.187c-0.982,0-1.896,0.1-2.741,0.3
				c-0.827,0.191-1.591,0.482-2.291,0.873c-0.727,0.409-1.264,0.868-1.609,1.378c-0.336,0.464-0.509,0.968-0.518,1.514
				c-0.055,1.109,0.591,2.064,1.937,2.864c0.218,0.127,0.445,0.246,0.682,0.355c0.927,0.427,1.982,0.691,3.164,0.791
				c0.355,0.027,0.723,0.041,1.105,0.041c1.937,0,3.601-0.396,4.992-1.187C24.73,116.245,25.453,115.29,25.498,114.172z"/>
			<path class="st13" d="M54.454,103.888l-3.792,3.164c-3.101,2.528-6.078,4.86-8.934,6.997
				c-9.129,6.874-15.317,10.516-18.563,10.925c-0.045,0.009-0.091,0.018-0.136,0.027c-1.728,0.2-3.864-0.059-6.41-0.777
				c-0.027-0.009-0.054-0.014-0.082-0.014l0.368,12.493c2.491,0.673,4.578,0.896,6.26,0.668c1.846-0.236,4.642-1.514,8.388-3.833
				c2.846-1.764,6.238-4.128,10.175-7.092c2.855-2.137,5.833-4.469,8.934-6.997l3.792-3.164c4.383-2.01,9.447-3.01,15.194-3.001
				c1.137,0,2.246,0.041,3.328,0.123l-0.055-12.398c-1.064-0.082-2.155-0.123-3.273-0.123
				C63.901,100.878,58.836,101.879,54.454,103.888z"/>
			<path class="st14" d="M39.669,77.688c-0.664-0.809-1.287-1.632-1.868-2.469c-0.018-0.027-0.036-0.055-0.055-0.082l0.627,14.839
				c0.409,0.564,0.841,1.123,1.296,1.678c0.155,0.136,0.309,0.277,0.464,0.423c1.509-1.518,2.478-3.164,2.905-4.937
				c0.146-0.591,0.227-1.196,0.245-1.814c0.018-0.737-0.045-1.455-0.191-2.155c-0.236-1.064-0.668-2.082-1.296-3.055L39.669,77.688z
				"/>
			<path class="st15" d="M109.269,0.859c-3.346,0.336-6.624,0.777-9.834,1.323L35.536,38.585c-0.964,1.809-1.759,3.66-2.387,5.551
				L109.269,0.859 M161.315,3.642c-4.892-1.127-9.97-1.991-15.235-2.591L32.931,65.522c1.055,3.328,2.66,6.533,4.815,9.616
				L161.315,3.642 M218.845,52.483c-0.036-2.228-0.277-4.405-0.723-6.533l-109.18,61.676c3.946,0.327,7.997,0.518,12.152,0.573
				l97.751-54.856c0-0.155,0-0.305,0-0.45V52.483 M205.628,25.355c-0.373-0.346-0.755-0.691-1.146-1.037L72.921,101.01
				c2.637,0.191,5.092,0.618,7.365,1.282l0.314,0.068c0.045,0.018,0.095,0.036,0.15,0.055l0.409,0.123
				c3.437,1.028,6.983,1.914,10.638,2.66l122.014-69.995c-0.682-1.127-1.428-2.232-2.237-3.314
				C209.884,29.642,207.902,27.464,205.628,25.355z"/>
			<path class="st16" d="M186.316,12.466c-2.928-1.464-5.951-2.796-9.07-3.996L43.038,87.139c-0.427,1.773-1.396,3.419-2.905,4.937
				c-0.027,0.018-0.05,0.041-0.068,0.068c-0.3,0.291-0.618,0.577-0.955,0.859c-0.573,0.482-1.205,0.946-1.896,1.391l-5.442,1.978
				c-4.383,1.609-8.443,3.182-12.18,4.719c-11.939,4.874-18.399,8.37-19.381,10.488c-0.082,0.182-0.141,0.368-0.177,0.559
				c0,0.009,0,0.027,0,0.055c-0.045,0.264-0.045,0.536,0,0.818v0.014c0,0.019,0.005,0.037,0.014,0.055
				c0.154,0.873,0.714,1.837,1.678,2.892c0.482,0.536,1.046,1.068,1.691,1.596l8.552-4.91c0.346-0.509,0.882-0.968,1.609-1.378
				c0.7-0.391,1.464-0.682,2.291-0.873L186.316,12.466 M216.444,65.726v-0.655l-75.383,42.267c3.019-0.318,5.983-0.714,8.893-1.187
				l64.69-36.525C215.326,68.345,215.926,67.045,216.444,65.726 M214.521,36.416c-0.227-0.409-0.464-0.814-0.709-1.214
				L91.797,105.198c0.927,0.191,1.864,0.373,2.81,0.546L214.521,36.416z"/>
			<path class="st17" d="M194.417,16.967c-0.582-0.364-1.173-0.723-1.773-1.078c-2.055-1.209-4.165-2.351-6.328-3.423
				L15.869,110.408c0.846-0.2,1.759-0.3,2.741-0.3c1.928,0,3.564,0.396,4.91,1.187c0.782,0.455,1.332,0.968,1.65,1.541
				c0.118,0.209,0.205,0.432,0.259,0.668L194.417,16.967 M126.945,0c-0.864,0-1.723,0.004-2.578,0.014l-92.95,53.71l-0.014,3.246
				c0.082,1.746,0.295,3.46,0.641,5.142L140.393,0.505C136.038,0.168,131.555,0,126.945,0z"/>
			<path class="st18" d="M199.3,20.213c-0.291-0.209-0.582-0.414-0.873-0.614c-1.273-0.891-2.61-1.768-4.01-2.632L25.43,113.504
				c0.055,0.209,0.077,0.432,0.068,0.668c-0.045,1.118-0.768,2.073-2.169,2.864c-1.391,0.791-3.055,1.187-4.992,1.187
				c-0.382,0-0.75-0.014-1.105-0.041c-1.182-0.1-2.237-0.364-3.164-0.791c-0.236-0.109-0.464-0.227-0.682-0.355
				c-1.346-0.8-1.991-1.755-1.937-2.864c0.009-0.546,0.182-1.05,0.518-1.514l-8.552,4.91c1.137,0.946,2.528,1.891,4.174,2.837
				c0.091,0.055,0.186,0.109,0.286,0.164c0.9,0.509,1.805,0.978,2.714,1.405c1.773,0.837,3.564,1.523,5.374,2.06
				c0.191,0.055,0.382,0.114,0.573,0.177L199.3,20.213 M177.246,8.47c-1.409-0.546-2.837-1.059-4.283-1.541L43.092,83.171
				c0.146,0.7,0.209,1.418,0.191,2.155c-0.018,0.618-0.1,1.223-0.245,1.814L177.246,8.47 M124.367,0.014
				c-1.164,0.018-2.323,0.046-3.478,0.082c-2.992,0.091-5.938,0.259-8.838,0.505c-0.937,0.082-1.864,0.168-2.782,0.259L33.15,44.136
				c-0.991,2.982-1.568,6.069-1.732,9.261v0.327L124.367,0.014 M214.63,69.654c0.009-0.009,0.014-0.018,0.014-0.027l-64.69,36.525
				c6.747-1.109,13.193-2.66,19.34-4.651l37.521-21.713v0.245c0.182-0.191,0.368-0.382,0.559-0.573
				C210.384,76.333,212.802,73.064,214.63,69.654 M216.444,65.072v0.655c0.109-0.273,0.214-0.55,0.314-0.832L216.444,65.072z"/>
			<path class="st19" d="M141.566,0.6c-0.391-0.036-0.782-0.068-1.173-0.096L32.045,62.112c0,0.036,0.005,0.073,0.014,0.109
				c0.227,1.109,0.518,2.209,0.873,3.301L146.08,1.05C144.589,0.877,143.084,0.727,141.566,0.6z"/>
			<path class="st20" d="M218.122,45.95c-0.7-3.301-1.9-6.479-3.601-9.534L94.607,105.743c4.61,0.846,9.388,1.473,14.335,1.882
				L218.122,45.95z"/>
			<path class="st21" d="M205.628,93.577c0.409-0.382,0.805-0.768,1.187-1.159V80.034c-0.382,0.382-0.777,0.768-1.187,1.159
				c-4.192,3.973-9.384,7.711-15.576,11.211c-6.483,3.664-13.403,6.697-20.758,9.097l0.341,12.289
				c7.229-2.382,14.035-5.378,20.418-8.988C196.245,101.301,201.437,97.56,205.628,93.577z"/>
			<path class="st22" d="M207.374,79.461c-0.191,0.191-0.377,0.382-0.559,0.573v12.384c3.273-3.301,5.878-6.76,7.815-10.379V69.654
				C212.802,73.064,210.384,76.333,207.374,79.461z"/>
		</g>
	</g>
</g>
</svg>
