<?xml version="1.0" encoding="utf-8"?>
<!-- Generator: Adobe Illustrator 19.1.0, SVG Export Plug-In . SVG Version: 6.00 Build 0)  -->
<svg version="1.1" id="Layer_1" xmlns="http://www.w3.org/2000/svg" xmlns:xlink="http://www.w3.org/1999/xlink" x="0px" y="0px"
	 viewBox="0 0 175.882 110.138" style="enable-background:new 0 0 175.882 110.138;" xml:space="preserve">
<style type="text/css">
	.st0{fill:#FFD8A1;}
	.st1{fill:#E8C08A;}
	.st2{fill:#FFDC71;}
	.st3{fill:#DFBA86;}
</style>
<g transform="matrix( 1, 0, 0, 1, -2371.55,867.95) ">
	<g>
		<g id="people_0_Layer17_5_FILL">
			<path class="st0" d="M2547.05-815.65c0.173-1.164,0.286-2.337,0.341-3.519c0.008-0.048,0.012-0.093,0.014-0.136v-0.205
				c0.009-0.391,0.018-0.782,0.027-1.173c-0.018-13.175-8.088-24.35-24.209-33.525c-16.73-9.529-37.234-14.103-61.512-13.721
				c-24.268,0.373-45.2,5.587-62.794,15.644c-17.604,10.057-26.714,22.013-27.333,35.871c-0.027,0.564-0.036,1.128-0.027,1.691
				v0.586c0.036,1.364,0.164,2.705,0.382,4.023c1.755,11.12,9.697,20.704,23.827,28.751c16.73,9.52,37.23,14.089,61.498,13.707
				c24.277-0.382,45.218-5.601,62.821-15.657C2536.179-792.504,2545.168-803.284,2547.05-815.65 M2539.344-821.105
				c0.018,0.7,0.009,1.409-0.027,2.128c-0.018,0.4-0.045,0.8-0.082,1.2c-1.027,11.384-9.261,21.25-24.7,29.597
				c-15.985,8.638-35.011,13.116-57.079,13.435c-22.041,0.327-40.658-3.596-55.852-11.771c-13.603-7.32-20.89-16.126-21.863-26.419
				c-0.091-0.909-0.132-1.828-0.123-2.755c0-0.309,0.009-0.618,0.027-0.927c0.309-6.583,2.987-12.661,8.033-18.235
				c4.055-4.51,9.652-8.693,16.79-12.548c15.976-8.638,34.989-13.121,57.038-13.448c22.059-0.318,40.685,3.61,55.879,11.784
				c5.41,2.91,9.82,6.056,13.23,9.438C2536.207-834.09,2539.116-827.916,2539.344-821.105z"/>
			<path class="st1" d="M2517.385-846.556c5.41,2.91,9.82,6.056,13.23,9.438c4.846,4.81,7.756,10.147,8.729,16.012
				c-0.227-6.81-3.137-12.984-8.729-18.522c-3.41-3.382-7.82-6.529-13.23-9.438c-15.194-8.174-33.82-12.102-55.879-11.784
				c-22.05,0.327-41.062,4.81-57.038,13.448c-7.138,3.855-12.734,8.038-16.79,12.548c-5.047,5.574-7.724,11.652-8.033,18.235
				c-0.018,0.309-0.027,0.618-0.027,0.927c0.837-6.083,3.523-11.634,8.061-16.653c4.055-4.51,9.652-8.693,16.79-12.548
				c15.976-8.638,34.989-13.121,57.038-13.448C2483.565-858.658,2502.191-854.73,2517.385-846.556z"/>
			<path class="st2" d="M2539.316-818.978c0.036-0.718,0.045-1.428,0.027-2.128c-0.973-5.865-3.883-11.202-8.729-16.012
				c-3.41-3.383-7.82-6.529-13.23-9.438c-15.194-8.174-33.82-12.102-55.879-11.784c-22.05,0.327-41.062,4.81-57.038,13.448
				c-7.138,3.855-12.734,8.038-16.79,12.548c-4.537,5.019-7.224,10.57-8.061,16.653c-0.009,0.927,0.032,1.846,0.123,2.755
				c0.973,10.293,8.261,19.099,21.863,26.419c15.194,8.174,33.811,12.098,55.852,11.771c22.068-0.318,41.094-4.796,57.079-13.435
				c15.439-8.347,23.673-18.213,24.7-29.597C2539.271-818.177,2539.298-818.577,2539.316-818.978z"/>
			<path class="st3" d="M2547.391-819.169c-0.055,1.182-0.168,2.355-0.341,3.519c-1.882,12.366-10.87,23.145-26.964,32.338
				c-17.603,10.056-38.544,15.276-62.821,15.657c-24.268,0.382-44.768-4.187-61.498-13.707
				c-14.13-8.047-22.073-17.631-23.827-28.751c-0.218-1.318-0.345-2.66-0.382-4.023v8.497c-0.009,0.318-0.009,0.632,0,0.941
				c0.182,13.012,8.251,24.064,24.209,33.156c16.73,9.52,37.23,14.089,61.498,13.707c24.277-0.382,45.218-5.601,62.821-15.658
				c17.594-10.056,26.696-22.009,27.305-35.857c0.009-0.218,0.018-0.432,0.027-0.641c0.009-0.655,0.005-1.305-0.013-1.95v-7.365
				C2547.403-819.262,2547.399-819.216,2547.391-819.169z"/>
		</g>
	</g>
</g>
</svg>
